<svg width="72" height="65" xmlns="http://www.w3.org/2000/svg" xmlns:xlink="http://www.w3.org/1999/xlink"><svg data-name="Layer 1" width="24" height="24" id="L2FwcC9zcmMvc3R5bGVzL2ltYWdlcy9nbG9iYWwvaWNvbl90d2l0dGVyLnN2Zw==" xmlns="http://www.w3.org/2000/svg"><path fill="#4f4f50" d="M24 4.56a9.87 9.87 0 01-2.83.77 4.94 4.94 0 002.17-2.72 10 10 0 01-3.13 1.19 4.93 4.93 0 00-8.39 4.49A14 14 0 011.67 3.15a4.93 4.93 0 001.52 6.57A4.79 4.79 0 011 9.11 4.93 4.93 0 004.91 14a4.86 4.86 0 01-2.22.08 4.92 4.92 0 004.6 3.42 9.91 9.91 0 01-7.29 2 13.92 13.92 0 007.55 2.21 13.92 13.92 0 0014-14.64A10.1 10.1 0 0024 4.56z"/></svg><svg data-name="Layer 1" width="24" height="24" id="L2FwcC9zcmMvc3R5bGVzL2ltYWdlcy9nbG9iYWwvaWNvbl95b3V0dWJlLnN2Zw==" x="24" xmlns="http://www.w3.org/2000/svg"><path fill="#4f4f50" d="M19.61 3.18C16 2.94 8 2.94 4.39 3.18.49 3.45 0 5.8 0 12s.48 8.55 4.39 8.82c3.6.24 11.62.24 15.22 0C23.51 20.55 24 18.2 24 12s-.48-8.55-4.39-8.82zM9 16V8l8 4z"/></svg><svg data-name="Layer 1" width="24" height="24" id="L2FwcC9zcmMvc3R5bGVzL2ltYWdlcy9nbG9iYWwvaWNvbl9mYWNlYm9vay5zdmc=" y="24" xmlns="http://www.w3.org/2000/svg"><path fill="#4f4f50" d="M22.68 0H1.33A1.32 1.32 0 000 1.33v21.35A1.32 1.32 0 001.33 24h11.49v-9.29H9.69v-3.63h3.13V8.41c0-3.1 1.89-4.79 4.66-4.79a23.5 23.5 0 012.79.15V7h-1.91c-1.51 0-1.8.71-1.8 1.76v2.32h3.59l-.47 3.62h-3.12V24h6.12A1.32 1.32 0 0024 22.67V1.32A1.32 1.32 0 0022.68 0z"/></svg><svg data-name="Layer 1" width="24" height="24" id="L2FwcC9zcmMvc3R5bGVzL2ltYWdlcy9nbG9iYWwvaWNvbl9pbnN0YWdyYW0uc3Zn" x="24" y="24" xmlns="http://www.w3.org/2000/svg"><path fill="#4f4f50" d="M12 2.16c3.2 0 3.58 0 4.85.07 3.25.15 4.77 1.69 4.92 4.92.06 1.27.07 1.65.07 4.85s0 3.59-.07 4.85c-.15 3.23-1.66 4.77-4.92 4.92-1.27.06-1.64.07-4.85.07s-3.58 0-4.85-.07c-3.26-.15-4.77-1.7-4.92-4.92-.06-1.27-.07-1.64-.07-4.85s0-3.58.07-4.85c.15-3.23 1.67-4.77 4.92-4.92 1.27-.05 1.65-.07 4.85-.07zM12 0C8.74 0 8.33 0 7.05.07c-4.35.2-6.78 2.62-7 7C0 8.33 0 8.74 0 12s0 3.67.07 5c.2 4.36 2.62 6.78 7 7H12c3.26 0 3.67 0 4.95-.07 4.35-.2 6.78-2.62 7-7C24 15.67 24 15.26 24 12s0-3.67-.07-4.95c-.2-4.35-2.62-6.78-7-7C15.67 0 15.26 0 12 0zm0 5.84A6.16 6.16 0 1018.16 12 6.16 6.16 0 0012 5.84zM12 16a4 4 0 114-4 4 4 0 01-4 4zm6.41-11.85a1.44 1.44 0 101.43 1.44 1.44 1.44 0 00-1.43-1.44z"/></svg><svg id="L2FwcC9zcmMvc3R5bGVzL2ltYWdlcy9nbG9iYWwvaWNvbl9waW50ZXJlc3Quc3Zn" data-name="Layer 1" width="24" height="24" x="48" xmlns="http://www.w3.org/2000/svg"><path fill="#4f4f50" d="M12 0a12 12 0 00-4.37 23.17 11.37 11.37 0 010-3.44l1.41-6A4.33 4.33 0 018.72 12c0-1.67 1-2.92 2.17-2.92a1.51 1.51 0 011.52 1.69 24.2 24.2 0 01-1 4 1.75 1.75 0 001.78 2.17c2.13 0 3.77-2.25 3.77-5.5a4.73 4.73 0 00-5-4.88 5.19 5.19 0 00-5.42 5.21 4.68 4.68 0 00.89 2.73.37.37 0 01.09.35l-.35 1.35c0 .22-.17.27-.4.16-1.5-.7-2.43-2.89-2.43-4.65 0-3.78 2.75-7.26 7.92-7.26 4.17 0 7.4 3 7.4 6.93 0 4.14-2.6 7.46-6.22 7.46a3.21 3.21 0 01-2.75-1.37l-.75 2.85a13.47 13.47 0 01-1.49 3.15A12.2 12.2 0 0012 24a12 12 0 000-24z" fill-rule="evenodd"/></svg><svg width="14" height="15" viewBox="-0.4 0 14 15" id="L2FwcC9zcmMvcHVibGljL2ltYWdlcy9jYXJ0L3RyYXNoLWljb24tZGVmYXVsdC5zdmc=" x="15" y="48" xmlns="http://www.w3.org/2000/svg"><defs><style>.fcls-1{fill:none;stroke:#4f4f50;stroke-linecap:round;stroke-width:.8px;stroke-miterlimit:10}</style></defs><g id="fIcon_trash" transform="translate(-291.011 -240)"><g id="ficon_trash-2" data-name="icon_trash" transform="translate(297.661 247.5)"><g id="fGroup_748" data-name="Group 748" transform="translate(-6.25 -7.1)"><path id="fPath_409" d="M.4 2.1h12.5" class="fcls-1" data-name="Path 409" transform="translate(-.4 -.4)"/><path id="fPath_410" d="M8.4 1.7L8.2.8a1 1 0 00-1-.8h-2a1 1 0 00-1 .8l-.2.9" data-name="Path 410" stroke-linejoin="round" fill="none" stroke="#4f4f50" stroke-linecap="round" stroke-width=".8"/><path id="fPath_411" d="M1.5 2.2l.4 11.4a1 1 0 001 1h7.4a1 1 0 001-1l.4-11.4" class="fcls-1" data-name="Path 411" transform="translate(-.4 -.4)"/></g></g></g></svg><svg width="15" height="17" viewBox="0 0 14.6 16.5" id="L2FwcC9zcmMvcHVibGljL2ltYWdlcy9jYXJ0L3RyYXNoLWljb24taGwuc3Zn" x="48" y="24" xmlns="http://www.w3.org/2000/svg"><defs><style>.gcls-1{fill:none;stroke:#0040b3;stroke-linecap:round;stroke-width:.8px;stroke-miterlimit:10}</style></defs><g id="gIcon_trash" transform="matrix(1.1 0 0 1.1 -320.112 -264)"><g id="gicon_trash-2" data-name="icon_trash" transform="translate(297.661 247.5)"><g id="gGroup_748" data-name="Group 748" transform="translate(-6.25 -7.1)"><path id="gPath_409" d="M.4 2.1h12.5" class="gcls-1" data-name="Path 409" transform="translate(-.4 -.4)"/><path id="gPath_410" d="M8.4 1.7L8.2.8a1 1 0 00-1-.8h-2a1 1 0 00-1 .8l-.2.9" data-name="Path 410" stroke-linejoin="round" fill="none" stroke="#0040b3" stroke-linecap="round" stroke-width=".8"/><path id="gPath_411" d="M1.5 2.2l.4 11.4a1 1 0 001 1h7.4a1 1 0 001-1l.4-11.4" class="gcls-1" data-name="Path 411" transform="translate(-.4 -.4)"/></g></g></g></svg><svg width="15" height="17" viewBox="-0.3 -0.3 15 17" id="L2FwcC9zcmMvcHVibGljL2ltYWdlcy9jYXJ0L3RyYXNoLWljb24tbnIuc3Zn" y="48" xmlns="http://www.w3.org/2000/svg"><defs><style>.hcls-1{fill:none;stroke:#28afd1;stroke-linecap:round;stroke-width:.8px;stroke-miterlimit:10}</style></defs><g id="hIcon_trash" transform="matrix(1.1 0 0 1.1 -320.112 -264)"><g id="hicon_trash-2" data-name="icon_trash" transform="translate(297.661 247.5)"><g id="hGroup_748" data-name="Group 748" transform="translate(-6.25 -7.1)"><path id="hPath_409" d="M.4 2.1h12.5" class="hcls-1" data-name="Path 409" transform="translate(-.4 -.4)"/><path id="hPath_410" d="M8.4 1.7L8.2.8a1 1 0 00-1-.8h-2a1 1 0 00-1 .8l-.2.9" data-name="Path 410" stroke-linejoin="round" fill="none" stroke="#28afd1" stroke-linecap="round" stroke-width=".8"/><path id="hPath_411" d="M1.5 2.2l.4 11.4a1 1 0 001 1h7.4a1 1 0 001-1l.4-11.4" class="hcls-1" data-name="Path 411" transform="translate(-.4 -.4)"/></g></g></g></svg></svg>