<svg data-name="Layer 1" xmlns="http://www.w3.org/2000/svg" viewBox="0 0 640.1 74"><path fill="none" d="M255.2 44.5l-3.14-7.29h-11.52l-3.14 7.29h17.8zM246.3 23.8l-5.76 13.41h11.52L246.3 23.8zM508.7 44.5l-3.14-7.29h-11.53l-3.13 7.29h17.8zM26.7 14H14.5v17.5h12.2c4.6 0 6.9-1.1 8.5-2.8a8.4 8.4 0 002.3-5.9 8.64 8.64 0 00-2.3-6c-1.6-1.7-3.9-2.8-8.5-2.8zM188.56 37.21h-10.09l5.03 12.59 5.06-12.59zM85.7 14H74.5v15h11.2c3.9 0 5.6-.8 6.8-2.1a8.16 8.16 0 000-10.7c-1.2-1.3-2.9-2.2-6.8-2.2zM499.8 23.8l-5.77 13.41h11.53L499.8 23.8z"/><path d="M1 72h13.5V43.5h12.8c9 0 14.4-2.2 18.2-6.2l.09-.09H1z" fill="none" stroke="#c7fc0f" stroke-miterlimit="10" stroke-width="2"/><path d="M45.5 8.3C41.6 4.2 36.3 2 27.3 2H1v35.21h44.59A21.1 21.1 0 0051 22.8a21 21 0 00-5.5-14.5zM35.2 28.7c-1.6 1.7-3.9 2.8-8.5 2.8H14.5V14h12.2c4.6 0 6.9 1.1 8.5 2.8a8.64 8.64 0 012.3 6 8.4 8.4 0 01-2.3 5.9zM61 72h13.5V41h4.9l24.9 31H121L94.8 39.9a18.23 18.23 0 005.3-2.69H61zM108 21.5a19.71 19.71 0 00-6.2-14.3C98.3 4 93.7 2 86.5 2H61v35.21h39.1a16.51 16.51 0 001.7-1.41 19.71 19.71 0 006.2-14.3zm-15.5 5.4c-1.2 1.3-2.9 2.1-6.8 2.1H74.5V14h11.2c3.9 0 5.6.9 6.8 2.2a8.16 8.16 0 010 10.7zM128 37.21h13.5v34.8H128zM128 2h13.5v35.21H128zM183.5 49.8l-5.03-12.59h-13.74L178.8 72h9.5l14.07-34.79h-13.81L183.5 49.8z" fill="none" stroke="#c7fc0f" stroke-miterlimit="10" stroke-width="2"/><path fill="none" stroke="#c7fc0f" stroke-miterlimit="10" stroke-width="2" d="M164.4 2h-13.9l14.23 35.21h13.74L164.4 2zM202.7 2l-14.14 35.21h13.81L216.6 2h-13.9zM255.2 44.5h-17.8l3.14-7.29h-14.03L211.6 72h14.1l6.6-15.5h28.1L267 72h14.1l-14.91-34.79h-14.13l3.14 7.29zM241.6 2l-15.09 35.21h14.03l5.76-13.41 5.76 13.41h14.13L251.1 2h-9.5zM328.6 14V2h-50.5v12h18.5v23.21h13.5V14h18.5zM296.6 37.21h13.5v34.8h-13.5zM352.6 28.5V14h28.5V2h-42v35.21h35V28.5h-21.5zM339.1 72h43V60h-29.5V40.5h21.5v-3.29h-35V72zM447.6 52.2c0 5.1-4.2 8.8-10.2 8.8-6.4 0-12.5-3.3-16.5-7.7l-8.8 9.2C419.3 69.1 428 73 437.4 73c12.6 0 23.7-8.6 23.7-21a18.24 18.24 0 00-6.69-14.79h-28.13c9.29 4.99 21.32 6.33 21.32 14.99zM428.8 20.6c0-5.4 5.7-7.6 10.8-7.6a18.74 18.74 0 0112.1 4.6l7-10A32.41 32.41 0 00438.4 1c-11.6 0-23.1 7.2-23.1 19.7 0 7.9 4.4 12.7 9.9 15.9.35.21.72.41 1.08.61h28.13C445 29.19 428.8 28.6 428.8 20.6zM508.7 44.5h-17.8l3.13-7.29h-14.02L465.1 72h14.09l6.61-15.5h28.1l6.6 15.5h14.1l-14.91-34.79h-14.13l3.14 7.29zM495.1 2l-15.09 35.21h14.02l5.77-13.41 5.76 13.41h14.13L504.6 2h-9.5zM542.6 72h43V60h-29.5V37.21h-13.5V72zM542.59 2h13.5v35.21h-13.5zM609.59 40.5h21.51v-3.29h-35.01V72h43.01V60h-29.51V40.5zM631.1 28.5h-21.51V14h28.51V2h-42.01v35.21h35.01V28.5z"/></svg>